<!DOCTYPE svg PUBLIC "-//W3C//DTD SVG 20010904//EN" "http://www.w3.org/TR/2001/REC-SVG-20010904/DTD/svg10.dtd">
<svg version="1.0" xmlns="http://www.w3.org/2000/svg" width="51px" height="48px" viewBox="0 0 510 480" preserveAspectRatio="xMidYMid meet">
<g id="layer101" fill="#666666" stroke="none">
 <path d="M21 456 c-35 -37 -26 -106 31 -232 10 -22 18 -48 18 -57 0 -9 4 -18 9 -22 5 -3 13 -20 16 -38 9 -38 33 -89 49 -99 16 -11 274 -10 295 2 10 5 21 16 24 24 6 14 -53 229 -89 324 l-16 42 -153 0 c-150 0 -187 8 -146 29 27 15 304 14 318 0 6 -6 33 -83 59 -170 46 -152 65 -185 72 -126 4 30 -72 290 -94 325 -14 21 -19 22 -192 22 -176 0 -179 0 -201 -24z m337 -273 c3 -10 -21 -13 -97 -13 -84 0 -101 3 -101 15 0 13 15 15 97 13 66 -2 98 -7 101 -15z m22 -78 c0 -22 -185 -22 -194 0 -4 13 10 15 94 15 82 0 100 -3 100 -15z"/>
 </g>

</svg>